# xmcd CD database file
#
# Track frame offsets:
#	150
#	18036
#	34273
#	48860
#	64370
#	78713
#	94495
#	114593
#	131336
#	152345
#	168479
#
# Disc length: 2469 seconds
#
# Revision: 3
# Processed by: cddbd v1.5.2PL0 Copyright (c) Steve Scherf et al.
# Submitted via: CDex 1.70beta2
#
DISCID=8809a30b
DTITLE=月島きらりstarring久住小春(モーニング娘。) - きらりん☆ランド
DYEAR=1900
DGENRE=Pop
TTITLE0=月島きらりstarring久住小春(モーニング娘。) - ハッピー☆彡
TTITLE1=月島きらりstarring久住小春(モーニング娘。) - チャンス!
TTITLE2=月島きらりstarring久住小春(モーニング娘。) - Olala
TTITLE3=月島きらりstarring久住小春(モーニング娘。) - ヒマワリ
TTITLE4=月島きらりstarring久住小春(モーニング娘。) - こんにちぱ
TTITLE5=月島きらりstarring久住小春(モーニング娘。) - very! berry! strawberry!
TTITLE6=月島きらりstarring久住小春(モーニング娘。) - はなをぷーん - きら☆ぴか
TTITLE7=月島きらりstarring久住小春(モーニング娘。) - 恋の魔法はハビビのビ!
TTITLE8=月島きらりstarring久住小春(モーニング娘。) - ふたりはNS - きら☆ぴか
TTITLE9=月島きらりstarring久住小春(モーニング娘。) - ラムタラ
TTITLE10=月島きらりstarring久住小春(モーニング娘。) - 幸せクローバー
EXTD=
EXTT0=
EXTT1=
EXTT2=
EXTT3=
EXTT4=
EXTT5=
EXTT6=
EXTT7=
EXTT8=
EXTT9=
EXTT10=
PLAYORDER=
